<svg width="131" height="37" viewBox="0 0 131 37" fill="none" xmlns="http://www.w3.org/2000/svg">
<path fill-rule="evenodd" clip-rule="evenodd" d="M16.4771 0C7.23039 0.863772 0 8.80615 0 18.4992C0 28.217 7.23039 36.1594 16.4771 36.9984V0Z" fill="#5BBB7B"/>
<path fill-rule="evenodd" clip-rule="evenodd" d="M36.1021 20.1773V37C27.4062 36.2104 20.4888 29.1071 19.7199 20.1773H36.1021Z" fill="#5BBB7B"/>
<path fill-rule="evenodd" clip-rule="evenodd" d="M19.7921 16.8474V0C28.4641 0.814326 35.4055 7.91763 36.1744 16.8474H19.7921Z" fill="#5BBB7B"/>
<path d="M61.7 10.5V13.825H56.325V27H52.025V13.825H46.625V10.5H61.7ZM67.4887 14.25C68.8053 14.25 69.9553 14.5083 70.9387 15.025C71.9387 15.525 72.7137 16.2667 73.2637 17.25C73.8303 18.2167 74.1137 19.3833 74.1137 20.75C74.1137 22.1167 73.8303 23.2917 73.2637 24.275C72.7137 25.2417 71.9387 25.9833 70.9387 26.5C69.9553 27 68.8053 27.25 67.4887 27.25C66.2053 27.25 65.0637 27 64.0637 26.5C63.0637 25.9833 62.2803 25.2417 61.7137 24.275C61.1637 23.2917 60.8887 22.1167 60.8887 20.75C60.8887 19.3833 61.1637 18.2167 61.7137 17.25C62.2803 16.2667 63.0637 15.525 64.0637 15.025C65.0637 14.5083 66.2053 14.25 67.4887 14.25ZM67.4887 17.275C67.0053 17.275 66.5887 17.3917 66.2387 17.625C65.8887 17.8583 65.622 18.2333 65.4387 18.75C65.2553 19.2667 65.1637 19.9333 65.1637 20.75C65.1637 21.5667 65.2553 22.2333 65.4387 22.75C65.622 23.25 65.8887 23.625 66.2387 23.875C66.5887 24.1083 67.0053 24.225 67.4887 24.225C67.9887 24.225 68.4137 24.1083 68.7637 23.875C69.1137 23.625 69.3803 23.25 69.5637 22.75C69.747 22.2333 69.8387 21.5667 69.8387 20.75C69.8387 19.9333 69.747 19.2667 69.5637 18.75C69.3803 18.2333 69.1137 17.8583 68.7637 17.625C68.4137 17.3917 67.9887 17.275 67.4887 17.275ZM76.5045 27V14.5H80.2545L80.4295 17.2C80.7462 16.2667 81.2128 15.5417 81.8295 15.025C82.4628 14.5083 83.2628 14.25 84.2295 14.25C84.5462 14.25 84.8128 14.275 85.0295 14.325C85.2628 14.375 85.4462 14.4417 85.5795 14.525L85.1545 18.025C84.9878 17.9583 84.7712 17.9083 84.5045 17.875C84.2545 17.825 83.9462 17.8 83.5795 17.8C83.0795 17.8 82.6128 17.9083 82.1795 18.125C81.7462 18.3417 81.3962 18.6667 81.1295 19.1C80.8795 19.5167 80.7545 20.05 80.7545 20.7V27H76.5045ZM94.0996 19.075C94.0996 18.4917 93.9329 18.0333 93.5996 17.7C93.2829 17.35 92.8496 17.175 92.2996 17.175C91.7496 17.175 91.2746 17.3167 90.8746 17.6C90.4913 17.8667 90.2246 18.35 90.0746 19.05L86.4746 18.2C86.7079 17 87.3246 16.0417 88.3246 15.325C89.3246 14.6083 90.7329 14.25 92.5496 14.25C93.7663 14.25 94.7996 14.4333 95.6496 14.8C96.5163 15.15 97.1746 15.6833 97.6246 16.4C98.0913 17.1 98.3246 17.9667 98.3246 19V23.575C98.3246 24.225 98.6163 24.55 99.1996 24.55C99.4996 24.55 99.7413 24.5167 99.9246 24.45L99.6746 26.875C99.1746 27.1083 98.5663 27.225 97.8496 27.225C97.1996 27.225 96.6246 27.125 96.1246 26.925C95.6246 26.7083 95.2329 26.3917 94.9496 25.975C94.6663 25.5417 94.5246 25 94.5246 24.35V24.2L94.9996 24.025C94.9996 24.7417 94.7829 25.3417 94.3496 25.825C93.9329 26.3083 93.3829 26.6667 92.6996 26.9C92.0329 27.1333 91.3329 27.25 90.5996 27.25C89.7496 27.25 89.0079 27.1167 88.3746 26.85C87.7413 26.5833 87.2496 26.2 86.8996 25.7C86.5663 25.1833 86.3996 24.55 86.3996 23.8C86.3996 22.9 86.6663 22.1583 87.1996 21.575C87.7496 20.975 88.6079 20.5583 89.7746 20.325L94.4996 19.35L94.4746 21.6L92.0746 22.1C91.5746 22.2 91.1996 22.35 90.9496 22.55C90.7163 22.7333 90.5996 23.0167 90.5996 23.4C90.5996 23.7667 90.7329 24.0417 90.9996 24.225C91.2663 24.4083 91.5829 24.5 91.9496 24.5C92.2329 24.5 92.4996 24.4583 92.7496 24.375C93.0163 24.2917 93.2496 24.1667 93.4496 24C93.6496 23.8167 93.8079 23.5917 93.9246 23.325C94.0413 23.0583 94.0996 22.7417 94.0996 22.375V19.075ZM106.104 27.25C105.071 27.25 104.163 27 103.379 26.5C102.613 25.9833 102.013 25.2417 101.579 24.275C101.163 23.3083 100.954 22.15 100.954 20.8C100.954 19.4 101.171 18.2167 101.604 17.25C102.054 16.2833 102.671 15.5417 103.454 15.025C104.254 14.5083 105.171 14.25 106.204 14.25C107.338 14.25 108.246 14.6 108.929 15.3C109.629 15.9833 110.079 16.8583 110.279 17.925L109.879 18.45V9.2H114.129V27H110.329L110.054 22.75L110.554 23.125C110.454 23.9583 110.196 24.6833 109.779 25.3C109.379 25.9167 108.863 26.4 108.229 26.75C107.613 27.0833 106.904 27.25 106.104 27.25ZM107.579 24.125C108.063 24.125 108.471 24 108.804 23.75C109.154 23.4833 109.421 23.0917 109.604 22.575C109.788 22.0583 109.879 21.425 109.879 20.675C109.879 19.975 109.788 19.3833 109.604 18.9C109.438 18.4 109.179 18.025 108.829 17.775C108.496 17.5083 108.088 17.375 107.604 17.375C106.871 17.375 106.288 17.65 105.854 18.2C105.438 18.7333 105.229 19.5833 105.229 20.75C105.229 21.9167 105.438 22.775 105.854 23.325C106.271 23.8583 106.846 24.125 107.579 24.125ZM123.128 14.25C124.445 14.25 125.595 14.5083 126.578 15.025C127.578 15.525 128.353 16.2667 128.903 17.25C129.47 18.2167 129.753 19.3833 129.753 20.75C129.753 22.1167 129.47 23.2917 128.903 24.275C128.353 25.2417 127.578 25.9833 126.578 26.5C125.595 27 124.445 27.25 123.128 27.25C121.845 27.25 120.703 27 119.703 26.5C118.703 25.9833 117.92 25.2417 117.353 24.275C116.803 23.2917 116.528 22.1167 116.528 20.75C116.528 19.3833 116.803 18.2167 117.353 17.25C117.92 16.2667 118.703 15.525 119.703 15.025C120.703 14.5083 121.845 14.25 123.128 14.25ZM123.128 17.275C122.645 17.275 122.228 17.3917 121.878 17.625C121.528 17.8583 121.262 18.2333 121.078 18.75C120.895 19.2667 120.803 19.9333 120.803 20.75C120.803 21.5667 120.895 22.2333 121.078 22.75C121.262 23.25 121.528 23.625 121.878 23.875C122.228 24.1083 122.645 24.225 123.128 24.225C123.628 24.225 124.053 24.1083 124.403 23.875C124.753 23.625 125.02 23.25 125.203 22.75C125.387 22.2333 125.478 21.5667 125.478 20.75C125.478 19.9333 125.387 19.2667 125.203 18.75C125.02 18.2333 124.753 17.8583 124.403 17.625C124.053 17.3917 123.628 17.275 123.128 17.275Z" fill="#083E47"/>
</svg>
