<svg xmlns="http://www.w3.org/2000/svg" width="60" height="60" viewBox="0 0 60 60" fill="none">
<rect width="60" height="60" rx="30" fill="#07D7AD"></rect>
<path d="M30.0004 17.3984C27.5084 17.3984 25.0723 18.1374 23.0002 19.5219C20.9282 20.9064 19.3132 22.8743 18.3595 25.1766C17.4058 27.479 17.1563 30.0124 17.6425 32.4566C18.1287 34.9007 19.3287 37.1458 21.0909 38.908C22.853 40.6701 25.0981 41.8702 27.5423 42.3563C29.9864 42.8425 32.5199 42.593 34.8222 41.6393C37.1246 40.6857 39.0924 39.0707 40.4769 36.9986C41.8614 34.9266 42.6004 32.4905 42.6004 29.9984C42.5972 26.6577 41.2687 23.4547 38.9064 21.0924C36.5442 18.7301 33.3411 17.4016 30.0004 17.3984ZM30.0004 41.3984C27.7457 41.3984 25.5416 40.7298 23.6669 39.4772C21.7922 38.2245 20.331 36.4441 19.4682 34.361C18.6053 32.2779 18.3796 29.9858 18.8194 27.7744C19.2593 25.563 20.3451 23.5317 21.9394 21.9374C23.5337 20.3431 25.565 19.2574 27.7764 18.8175C29.9878 18.3776 32.2799 18.6034 34.363 19.4662C36.4461 20.329 38.2265 21.7902 39.4792 23.6649C40.7318 25.5397 41.4004 27.7437 41.4004 29.9984C41.3972 33.0209 40.1951 35.9187 38.0579 38.0559C35.9207 40.1932 33.0229 41.3953 30.0004 41.3984Z" fill="white"></path>
<path d="M34.2004 30.7544L30.6004 29.5544V22.7984C30.6004 22.6393 30.5372 22.4867 30.4247 22.3742C30.3121 22.2617 30.1595 22.1984 30.0004 22.1984C29.8413 22.1984 29.6887 22.2617 29.5761 22.3742C29.4636 22.4867 29.4004 22.6393 29.4004 22.7984V29.9984C29.3995 30.1236 29.4386 30.2459 29.512 30.3473C29.5854 30.4487 29.6892 30.5241 29.8084 30.5624L33.7924 31.8944C33.8558 31.907 33.921 31.907 33.9844 31.8944C34.1106 31.8927 34.2331 31.8511 34.3344 31.7757C34.4356 31.7003 34.5105 31.5949 34.5484 31.4744C34.5919 31.3327 34.5802 31.1797 34.5156 31.0462C34.4511 30.9127 34.3385 30.8084 34.2004 30.7544Z" fill="white"></path>
</svg>