<svg xmlns="http://www.w3.org/2000/svg" width="60" height="60" viewBox="0 0 60 60" fill="none">
<rect width="60" height="60" rx="30" fill="#07D7AD"></rect>
<path d="M30.0001 15C23.8893 15 18.918 19.9713 18.918 26.0821C18.918 28.0939 19.8202 30.2575 19.858 30.3488C20.1494 31.0404 20.7244 32.1147 21.139 32.7445L28.7374 44.2575C29.0483 44.7295 29.5086 45 30.0001 45C30.4916 45 30.9519 44.7295 31.2628 44.2581L38.8619 32.7445C39.2772 32.1147 39.8515 31.0404 40.1429 30.3488C40.1807 30.2581 41.0822 28.0945 41.0822 26.0821C41.0822 19.9713 36.1109 15 30.0001 15ZM38.9408 29.8429C38.6807 30.4628 38.1455 31.4622 37.7732 32.0267L30.1742 43.5404C30.0242 43.7679 29.9766 43.7679 29.8267 43.5404L22.2276 32.0267C21.8554 31.4622 21.3202 30.4622 21.0601 29.8422C21.049 29.8155 20.2217 27.824 20.2217 26.0821C20.2217 20.6904 24.6083 16.3038 30.0001 16.3038C35.3919 16.3038 39.7785 20.6904 39.7785 26.0821C39.7785 27.8266 38.9493 29.8233 38.9408 29.8429Z" fill="white"></path>
<path d="M30.0001 20.2158C26.7648 20.2158 24.1331 22.8481 24.1331 26.0828C24.1331 29.3175 26.7648 31.9498 30.0001 31.9498C33.2354 31.9498 35.8671 29.3175 35.8671 26.0828C35.8671 22.8481 33.2354 20.2158 30.0001 20.2158ZM30.0001 30.646C27.4845 30.646 25.4369 28.5991 25.4369 26.0828C25.4369 23.5665 27.4845 21.5196 30.0001 21.5196C32.5158 21.5196 34.5633 23.5665 34.5633 26.0828C34.5633 28.5991 32.5158 30.646 30.0001 30.646Z" fill="white"></path>
</svg>