<svg xmlns="http://www.w3.org/2000/svg" width="60" height="60" viewBox="0 0 60 60" fill="none">
<rect width="60" height="60" rx="30" fill="#07D7AD"></rect>
<path d="M43.8858 20.6709C43.8858 20.6667 43.8858 20.663 43.8846 20.6588C43.8834 20.6545 43.883 20.644 43.8825 20.6367C43.8799 20.6042 43.8733 20.5721 43.863 20.5411C43.8616 20.5369 43.863 20.5324 43.8605 20.5282C43.8579 20.524 43.8581 20.5247 43.8574 20.5228C43.8441 20.4888 43.8262 20.4567 43.8042 20.4274C43.7993 20.4209 43.7941 20.415 43.7887 20.4087C43.7674 20.3828 43.743 20.3597 43.7161 20.3398C43.7133 20.3377 43.7109 20.3351 43.7081 20.3332C43.678 20.3134 43.6454 20.2976 43.6111 20.2863C43.6031 20.2835 43.5952 20.2812 43.5877 20.2788C43.5516 20.268 43.5142 20.2622 43.4766 20.2617H16.5225C16.4849 20.2622 16.4475 20.268 16.4114 20.2788C16.4032 20.2812 16.3955 20.2835 16.388 20.2863C16.3537 20.2976 16.3211 20.3134 16.2909 20.3332C16.2881 20.3351 16.2858 20.3377 16.283 20.3398C16.256 20.3597 16.2316 20.3828 16.2103 20.4087C16.2052 20.415 16.1998 20.4209 16.1948 20.4274C16.1729 20.4567 16.155 20.4888 16.1416 20.5228C16.1416 20.5247 16.1393 20.5263 16.1386 20.5282C16.1379 20.5301 16.1374 20.5369 16.136 20.5411C16.1257 20.5721 16.1192 20.6042 16.1166 20.6367C16.1166 20.6442 16.1145 20.6515 16.1145 20.6588C16.1145 20.666 16.1133 20.6667 16.1133 20.6709V39.3307C16.1133 39.3361 16.1147 39.3412 16.1149 39.3466C16.1156 39.3614 16.1171 39.3761 16.1194 39.3907C16.1213 39.4027 16.1229 39.4141 16.1257 39.4263C16.1293 39.4405 16.1337 39.4545 16.1388 39.4683C16.1428 39.4793 16.1466 39.4903 16.1515 39.5009C16.158 39.5147 16.1653 39.5282 16.1733 39.5412C16.1789 39.5505 16.1845 39.5602 16.1909 39.5691C16.1999 39.5815 16.2097 39.5934 16.2202 39.6047C16.2279 39.6131 16.2356 39.6216 16.2436 39.6295C16.2485 39.634 16.2523 39.6394 16.2574 39.6438C16.2626 39.6483 16.2659 39.6478 16.2696 39.6509C16.3016 39.6766 16.3373 39.6974 16.3755 39.7125C16.3837 39.7158 16.3922 39.7177 16.4006 39.7202C16.4376 39.7323 16.4761 39.739 16.515 39.7402C16.5178 39.7402 16.5204 39.7416 16.5232 39.7416H16.5286H43.4705H43.4759C43.4787 39.7416 43.4813 39.7402 43.4838 39.7402C43.5228 39.7391 43.5614 39.7323 43.5984 39.7202C43.6066 39.7177 43.6148 39.7158 43.6219 39.7125C43.6602 39.6974 43.696 39.6767 43.728 39.6509C43.7318 39.6478 43.7365 39.6469 43.7402 39.6438C43.744 39.6408 43.7491 39.634 43.7541 39.6295C43.7625 39.6216 43.7702 39.6134 43.7775 39.6047C43.7879 39.5934 43.7977 39.5815 43.8068 39.5691C43.8131 39.5602 43.8188 39.5508 43.8244 39.5412C43.8324 39.5282 43.8397 39.5147 43.8462 39.5009C43.8511 39.4903 43.8548 39.4793 43.8588 39.4683C43.864 39.4545 43.8683 39.4405 43.872 39.4263C43.8748 39.4146 43.8764 39.4029 43.8783 39.3907C43.8806 39.3761 43.8821 39.3614 43.8827 39.3466C43.8827 39.3412 43.8844 39.3361 43.8844 39.3307L43.8858 20.6709ZM25.7334 29.1375L29.7314 32.5774C29.8059 32.6414 29.9008 32.6766 29.9989 32.6766C30.0971 32.6766 30.192 32.6414 30.2665 32.5774L34.2647 29.1375L42.5878 38.9205H17.4105L25.7334 29.1375ZM16.9327 38.2163V21.5651L25.1123 28.6024L16.9327 38.2163ZM34.8858 28.6024L43.0655 21.5651V38.2163L34.8858 28.6024ZM42.3696 21.0811L34.0481 28.2415C34.0467 28.2427 34.0448 28.2434 34.0434 28.2448C34.042 28.2462 34.0406 28.248 34.039 28.2495L29.9991 31.7255L25.9591 28.2495C25.9575 28.248 25.9563 28.2462 25.9547 28.2448L25.95 28.2415L17.628 21.0811H42.3696Z" fill="white"></path>
</svg>