<svg xmlns="http://www.w3.org/2000/svg" width="64" height="64" viewBox="0 0 64 64" fill="none">
<path d="M40.6501 44.6603H25.6501C25.3848 44.6603 25.1305 44.7656 24.943 44.9532C24.7554 45.1407 24.6501 45.3951 24.6501 45.6603V57.6603C24.6501 57.9255 24.7554 58.1798 24.943 58.3674C25.1305 58.5549 25.3848 58.6603 25.6501 58.6603H40.6501C40.9153 58.6603 41.1696 58.5549 41.3572 58.3674C41.5447 58.1798 41.6501 57.9255 41.6501 57.6603V45.6603C41.6501 45.3951 41.5447 45.1407 41.3572 44.9532C41.1696 44.7656 40.9153 44.6603 40.6501 44.6603ZM39.6501 56.6603H26.6501V46.6603H32.1501V47.6603C32.1501 47.9255 32.2554 48.1798 32.443 48.3674C32.6305 48.5549 32.8849 48.6603 33.1501 48.6603C33.4153 48.6603 33.6696 48.5549 33.8572 48.3674C34.0447 48.1798 34.1501 47.9255 34.1501 47.6603V46.6603H39.6501V56.6603Z" fill="#07D7AD"></path>
<path d="M58.6501 44.6603H43.6501C43.3848 44.6603 43.1305 44.7656 42.943 44.9532C42.7554 45.1407 42.6501 45.3951 42.6501 45.6603V57.6603C42.6501 57.9255 42.7554 58.1798 42.943 58.3674C43.1305 58.5549 43.3848 58.6603 43.6501 58.6603H58.6501C58.9153 58.6603 59.1696 58.5549 59.3572 58.3674C59.5447 58.1798 59.6501 57.9255 59.6501 57.6603V45.6603C59.6501 45.3951 59.5447 45.1407 59.3572 44.9532C59.1696 44.7656 58.9153 44.6603 58.6501 44.6603ZM57.6501 56.6603H44.6501V46.6603H50.1501V47.6603C50.1501 47.9255 50.2554 48.1798 50.443 48.3674C50.6305 48.5549 50.8848 48.6603 51.1501 48.6603C51.4153 48.6603 51.6696 48.5549 51.8572 48.3674C52.0447 48.1798 52.1501 47.9255 52.1501 47.6603V46.6603H57.6501V56.6603Z" fill="#07D7AD"></path>
<path d="M58.6501 29.6603H43.6501C43.3848 29.6603 43.1305 29.7656 42.943 29.9532C42.7554 30.1407 42.6501 30.3951 42.6501 30.6603V42.6603C42.6501 42.9255 42.7554 43.1798 42.943 43.3674C43.1305 43.5549 43.3848 43.6603 43.6501 43.6603H58.6501C58.9153 43.6603 59.1696 43.5549 59.3572 43.3674C59.5447 43.1798 59.6501 42.9255 59.6501 42.6603V30.6603C59.6501 30.3951 59.5447 30.1407 59.3572 29.9532C59.1696 29.7656 58.9153 29.6603 58.6501 29.6603ZM57.6501 41.6603H44.6501V31.6603H50.1501V32.6603C50.1501 32.9255 50.2554 33.1798 50.443 33.3674C50.6305 33.5549 50.8848 33.6603 51.1501 33.6603C51.4153 33.6603 51.6696 33.5549 51.8572 33.3674C52.0447 33.1798 52.1501 32.9255 52.1501 32.6603V31.6603H57.6501V41.6603Z" fill="#07D7AD"></path>
<path d="M43.5201 27.6303C43.6477 27.5966 43.7675 27.538 43.8724 27.4579C43.9773 27.3777 44.0653 27.2776 44.1313 27.1632C44.1973 27.0488 44.2401 26.9226 44.257 26.7916C44.2739 26.6607 44.2648 26.5277 44.2301 26.4003L43.3501 23.1103L46.3501 20.5803L46.4301 20.5103C48.4286 18.4065 49.9228 15.8762 50.8001 13.1103C51.4921 10.9205 51.7801 8.62311 51.6501 6.33027C51.6363 6.08883 51.5355 5.86056 51.3664 5.68773C51.1972 5.5149 50.9712 5.40923 50.7301 5.39027C48.4696 5.22596 46.1982 5.48021 44.0301 6.14027C41.1808 7.0282 38.5852 8.58485 36.4601 10.6803L33.9201 13.6803L28.0001 12.0703C28.1863 11.8829 28.2909 11.6295 28.2909 11.3653C28.2909 11.1011 28.1863 10.8476 28.0001 10.6603C27.9071 10.5665 27.7965 10.4922 27.6746 10.4414C27.5528 10.3906 27.4221 10.3645 27.2901 10.3645C27.1581 10.3645 27.0273 10.3906 26.9055 10.4414C26.7836 10.4922 26.673 10.5665 26.5801 10.6603L25.8801 11.3603C25.84 11.4112 25.8033 11.4647 25.7701 11.5203L21.2701 10.3103L21.6301 9.95027C21.7238 9.85731 21.7982 9.74671 21.849 9.62485C21.8997 9.50299 21.9259 9.37228 21.9259 9.24027C21.9259 9.10826 21.8997 8.97756 21.849 8.8557C21.7982 8.73384 21.7238 8.62324 21.6301 8.53027C21.4427 8.34402 21.1892 8.23948 20.9251 8.23948C20.6609 8.23948 20.4074 8.34402 20.2201 8.53027L19.0001 9.69027L10.3901 7.39027C10.1774 7.33152 9.95118 7.34478 9.74679 7.42798C9.5424 7.51118 9.37127 7.65966 9.26007 7.85027L6.93007 12.0003C6.86256 12.1135 6.81808 12.2389 6.79921 12.3693C6.78033 12.4997 6.78742 12.6326 6.82007 12.7603C6.85538 12.8888 6.91603 13.009 6.99847 13.1137C7.0809 13.2185 7.18344 13.3057 7.30007 13.3703L25.3801 23.6703L15.3801 35.3703L6.84007 34.4603C6.66068 34.4414 6.47953 34.4714 6.31581 34.5471C6.15209 34.6228 6.01189 34.7414 5.91007 34.8903L4.52007 36.9103C4.43802 37.0321 4.38384 37.1706 4.36137 37.3158C4.33891 37.461 4.3487 37.6093 4.39007 37.7503C4.42956 37.8906 4.49924 38.0206 4.59425 38.1311C4.68926 38.2417 4.80728 38.3301 4.94007 38.3903L12.4401 41.7403L15.2701 44.5703L18.6201 52.0703C18.6802 52.2031 18.7687 52.3211 18.8792 52.4161C18.9898 52.5111 19.1197 52.5808 19.2601 52.6203C19.3495 52.6348 19.4407 52.6348 19.5301 52.6203C19.7324 52.6192 19.9302 52.5602 20.1001 52.4503L22.1701 51.0403C22.3206 50.9376 22.4402 50.7958 22.5159 50.6301C22.5917 50.4645 22.6208 50.2813 22.6001 50.1003L21.6901 41.5803L33.3801 31.5903L38.7801 41.0703C38.8454 41.1849 38.9327 41.2854 39.0371 41.3661C39.1414 41.4468 39.2607 41.506 39.3881 41.5404C39.5154 41.5748 39.6483 41.5836 39.7791 41.5665C39.9098 41.5493 40.0359 41.5064 40.1501 41.4403C40.3788 41.3083 40.5461 41.0913 40.6154 40.8365C40.6847 40.5817 40.6504 40.3099 40.5201 40.0803L34.9301 30.3003L41.6601 24.5503L42.3001 26.9203C42.3681 27.1759 42.5347 27.3942 42.7634 27.5273C42.9921 27.6603 43.2642 27.6974 43.5201 27.6303ZM9.16007 12.0803L10.6501 9.52027L32.4501 15.3403L26.7001 22.0803L9.16007 12.0803ZM41.5701 22.0003L33.0001 29.3103L30.0001 31.8603L20.0001 40.4403C19.8769 40.5467 19.7815 40.6815 19.7222 40.8331C19.663 40.9847 19.6416 41.1485 19.6601 41.3103L20.5601 49.7603L19.9701 50.1603L17.0001 43.5803C16.9491 43.4682 16.8779 43.3665 16.7901 43.2803L13.7001 40.1903C13.616 40.107 13.5178 40.0393 13.4101 39.9903L6.85007 37.0503L7.25007 36.4603L15.7101 37.3603C15.8718 37.3787 16.0356 37.3573 16.1872 37.2981C16.3388 37.2388 16.4737 37.1435 16.5801 37.0203L35.0001 15.4103L37.8601 12.0703C39.7386 10.2218 42.0326 8.85018 44.5501 8.07027C46.1909 7.56166 47.9025 7.31859 49.6201 7.35027C49.6282 9.10428 49.3617 10.8487 48.8301 12.5203C48.0659 14.9714 46.7565 17.2176 45.0001 19.0903L41.5701 22.0003Z" fill="#07D7AD"></path>
<path d="M40.0701 18.3603L29.4601 27.5503C29.2691 27.7265 29.1543 27.9702 29.1399 28.2297C29.1255 28.4892 29.2127 28.7441 29.383 28.9404C29.5533 29.1367 29.7933 29.259 30.0522 29.2814C30.3112 29.3037 30.5686 29.2244 30.7701 29.0603L41.3801 19.8703C41.571 19.694 41.6859 19.4503 41.7002 19.1908C41.7146 18.9314 41.6274 18.6765 41.4571 18.4802C41.2868 18.2839 41.0468 18.1616 40.7879 18.1392C40.529 18.1168 40.2715 18.1961 40.0701 18.3603Z" fill="#07D7AD"></path>
<path d="M18.8301 36.7703L16.8301 38.7703C16.6438 38.9576 16.5393 39.2111 16.5393 39.4753C16.5393 39.7395 16.6438 39.9929 16.8301 40.1803C17.0147 40.3687 17.2663 40.4765 17.5301 40.4803C17.6624 40.4797 17.7933 40.4529 17.9151 40.4014C18.037 40.3499 18.1475 40.2748 18.2401 40.1803L20.2401 38.1803C20.4039 37.989 20.4895 37.7429 20.4798 37.4912C20.4701 37.2395 20.3657 37.0008 20.1876 36.8227C20.0095 36.6446 19.7708 36.5403 19.5191 36.5306C19.2674 36.5208 19.0214 36.6064 18.8301 36.7703Z" fill="#07D7AD"></path>
</svg>