<svg xmlns="http://www.w3.org/2000/svg" width="64" height="64" viewBox="0 0 64 64" fill="none">
<path d="M2 43.5885H42.1912C42.6745 43.5885 43.0662 43.1968 43.0662 42.7135V22.6179C43.0662 22.3145 42.9091 22.0327 42.651 21.8734L24.5175 10.6751C24.5995 10.4254 24.6453 10.1594 24.6453 9.8825C24.6453 9.39925 24.2535 9.0075 23.7703 9.0075C23.3542 9.0075 23.0066 9.29813 22.9179 9.68725L22.5554 9.46338C22.2736 9.2895 21.9176 9.2895 21.636 9.46338L21.3301 9.65225C21.4293 9.32325 21.7348 9.08275 22.0958 9.08275C22.579 9.08275 22.9708 8.691 22.9708 8.20775V6.85775C23.901 6.5035 24.5648 5.60488 24.5648 4.55188C24.5648 3.49888 23.9009 2.60012 22.9708 2.24587V2C22.9708 1.51675 22.579 1.125 22.0958 1.125C21.6125 1.125 21.2208 1.51675 21.2208 2V2.24587C20.2905 2.60012 19.6266 3.49888 19.6266 4.55188C19.6266 5.60488 20.2905 6.5035 21.2208 6.85775V7.4875C20.2446 7.84525 19.5461 8.78387 19.5461 9.8825C19.5461 10.1594 19.5919 10.4254 19.6739 10.6751L1.54025 21.8734C1.28212 22.0327 1.125 22.3145 1.125 22.6179V42.7135C1.125 43.1968 1.51675 43.5885 2 43.5885ZM22.0956 5.27087C21.6991 5.27087 21.3765 4.94838 21.3765 4.55188C21.3765 4.15538 21.6991 3.83275 22.0956 3.83275C22.4921 3.83275 22.8146 4.15538 22.8146 4.55188C22.8146 4.94838 22.4921 5.27087 22.0956 5.27087ZM2.875 41.8385V23.4929H41.3162V41.8385H2.875ZM22.0956 12.4323C22.582 12.4323 23.0352 12.2929 23.4224 12.0556L39.109 21.7429H5.08213L20.7687 12.0556C21.156 12.2929 21.6094 12.4323 22.0956 12.4323ZM22.9705 27.2013V38.3001C22.9705 38.7834 22.5788 39.1751 22.0955 39.1751C21.6123 39.1751 21.2205 38.7834 21.2205 38.3001V27.2013C21.2205 26.718 21.6123 26.3263 22.0955 26.3263C22.5788 26.3263 22.9705 26.718 22.9705 27.2013ZM28.1396 27.2013V38.3001C28.1396 38.7834 27.7479 39.1751 27.2646 39.1751C26.7814 39.1751 26.3896 38.7834 26.3896 38.3001V27.2013C26.3896 26.718 26.7814 26.3263 27.2646 26.3263C27.7479 26.3263 28.1396 26.718 28.1396 27.2013ZM7.46325 27.0312V38.1301C7.46325 38.6134 7.0715 39.0051 6.58825 39.0051C6.105 39.0051 5.71325 38.6134 5.71325 38.1301V27.0312C5.71325 26.548 6.105 26.1562 6.58825 26.1562C7.0715 26.1562 7.46325 26.5479 7.46325 27.0312ZM33.3088 27.2013V38.3001C33.3088 38.7834 32.917 39.1751 32.4338 39.1751C31.9505 39.1751 31.5588 38.7834 31.5588 38.3001V27.2013C31.5588 26.718 31.9505 26.3263 32.4338 26.3263C32.917 26.3263 33.3088 26.718 33.3088 27.2013ZM12.6324 27.0312V38.1301C12.6324 38.6134 12.2406 39.0051 11.7574 39.0051C11.2741 39.0051 10.8824 38.6134 10.8824 38.1301V27.0312C10.8824 26.548 11.2741 26.1562 11.7574 26.1562C12.2406 26.1562 12.6324 26.5479 12.6324 27.0312ZM17.8015 27.2013V38.3001C17.8015 38.7834 17.4097 39.1751 16.9265 39.1751C16.4433 39.1751 16.0515 38.7834 16.0515 38.3001V27.2013C16.0515 26.718 16.4433 26.3263 16.9265 26.3263C17.4097 26.3263 17.8015 26.718 17.8015 27.2013ZM38.4779 27.2013V38.3001C38.4779 38.7834 38.0861 39.1751 37.6029 39.1751C37.1196 39.1751 36.7279 38.7834 36.7279 38.3001V27.2013C36.7279 26.718 37.1196 26.3263 37.6029 26.3263C38.0861 26.3263 38.4779 26.718 38.4779 27.2013ZM62.4707 47.7523L59.0485 42.4671C58.5756 41.7371 57.8058 41.3185 56.936 41.3185H48.398C47.9147 41.3185 47.523 41.7103 47.523 42.1935V53.7346H43.0662V51.3735C43.0662 50.8903 42.6745 50.4985 42.1912 50.4985H2C1.51675 50.4985 1.125 50.8903 1.125 51.3735V54.6096C1.125 55.0929 1.51675 55.4846 2 55.4846H4.50863C3.897 56.262 3.53075 57.2411 3.53075 58.3049C3.53075 60.8249 5.581 62.8751 8.101 62.8751C10.621 62.8751 12.6711 60.825 12.6711 58.3049C12.6711 57.2412 12.3049 56.2621 11.6932 55.4846H14.046C13.4344 56.262 13.0681 57.2411 13.0681 58.3049C13.0681 60.8249 15.1182 62.8751 17.6384 62.8751C20.1585 62.8751 22.2086 60.825 22.2086 58.3049C22.2086 57.2412 21.8424 56.2621 21.2307 55.4846H35.9798C35.3681 56.262 35.0019 57.2411 35.0019 58.3049C35.0019 60.8249 37.052 62.8751 39.5721 62.8751C41.2222 62.8751 42.6706 61.996 43.4741 60.6816H50.2006C51.0039 61.9958 52.4524 62.875 54.1024 62.875C55.7524 62.875 57.2009 61.9959 58.0044 60.6815H60.726C61.9109 60.6815 62.8749 59.7175 62.8749 58.5327V49.1204C62.875 48.6198 62.7426 48.172 62.4707 47.7523ZM2.875 52.2485H41.3162V53.7346H2.875V52.2485ZM10.9211 58.3047C10.9211 59.8597 9.656 61.125 8.101 61.125C6.54587 61.125 5.28075 59.8599 5.28075 58.3047C5.28075 56.7496 6.54587 55.4845 8.101 55.4845C9.656 55.4845 10.9211 56.7497 10.9211 58.3047ZM20.4584 58.3047C20.4584 59.8597 19.1932 61.125 17.6381 61.125C16.083 61.125 14.8179 59.8599 14.8179 58.3047C14.8179 56.7496 16.083 55.4845 17.6381 55.4845C19.1932 55.4845 20.4584 56.7497 20.4584 58.3047ZM39.5718 61.125C38.0168 61.125 36.7515 59.8599 36.7515 58.3047C36.7515 56.7496 38.0166 55.4845 39.5718 55.4845C41.1269 55.4845 42.392 56.7496 42.392 58.3047C42.392 59.8599 41.1269 61.125 39.5718 61.125ZM43.164 55.4845H47.5229V58.9314H44.0979C44.1261 58.7264 44.1419 58.5174 44.1419 58.3046C44.142 57.2411 43.7758 56.262 43.164 55.4845ZM49.5322 58.3047C49.5322 58.5174 49.548 58.7264 49.5762 58.9315H49.2729V43.0684H56.9359C57.2126 43.0684 57.4291 43.1861 57.5795 43.4184L61.0018 48.7036C61.0904 48.8404 61.1249 48.9571 61.1249 49.1203V52.6629H60.6355C60.1523 52.6629 59.7605 53.0546 59.7605 53.5379C59.7605 54.0211 60.1523 54.4129 60.6355 54.4129H61.125V55.9281H58.0045C57.201 54.6137 55.7525 53.7345 54.1024 53.7345C51.5824 53.7345 49.5322 55.7847 49.5322 58.3047ZM54.1024 61.125C52.5474 61.125 51.2821 59.8599 51.2821 58.3047C51.2821 56.7496 52.5472 55.4845 54.1024 55.4845C55.6575 55.4845 56.9226 56.7496 56.9226 58.3047C56.9226 59.8599 55.6575 61.125 54.1024 61.125ZM60.7261 58.9315H58.6286C58.6569 58.7265 58.6726 58.5175 58.6726 58.3047C58.6726 58.0921 58.6569 57.8831 58.6286 57.6781H61.125V58.5326C61.125 58.7526 60.946 58.9315 60.7261 58.9315ZM59.2342 48.6374C59.3875 48.3558 59.3743 48.013 59.2001 47.7439L56.9906 44.3317C56.8294 44.0827 56.5529 43.9324 56.2561 43.9324H51.954C51.4707 43.9324 51.079 44.3241 51.079 44.8074V48.2195C51.079 48.7028 51.4707 49.0945 51.954 49.0945H58.4656C58.7861 49.0944 59.081 48.9191 59.2342 48.6374ZM52.829 47.3444V45.6823H55.7803L56.8565 47.3444H52.829ZM16.6721 58.3047C16.6721 57.7711 17.1046 57.3386 17.6383 57.3386C18.1719 57.3386 18.6044 57.7711 18.6044 58.3047C18.6044 58.8382 18.1719 59.2709 17.6383 59.2709C17.1046 59.2709 16.6721 58.8384 16.6721 58.3047ZM7.13475 58.3047C7.13475 57.7711 7.56737 57.3386 8.10087 57.3386C8.6345 57.3386 9.067 57.7711 9.067 58.3047C9.067 58.8382 8.6345 59.2709 8.10087 59.2709C7.56737 59.2709 7.13475 58.8384 7.13475 58.3047ZM40.5379 58.3047C40.5379 58.8382 40.1053 59.2709 39.5718 59.2709C39.0381 59.2709 38.6056 58.8384 38.6056 58.3047C38.6056 57.7711 39.0381 57.3386 39.5718 57.3386C40.1054 57.3386 40.5379 57.7711 40.5379 58.3047ZM55.0685 58.3047C55.0685 58.8382 54.6359 59.2709 54.1024 59.2709C53.5687 59.2709 53.1362 58.8384 53.1362 58.3047C53.1362 57.7711 53.5687 57.3386 54.1024 57.3386C54.636 57.3386 55.0685 57.7711 55.0685 58.3047Z" fill="#07D7AD"></path>
</svg>