<svg xmlns="http://www.w3.org/2000/svg" width="64" height="64" viewBox="0 0 64 64" fill="none">
<path d="M61.1668 13.7155L32.3203 2.34004C32.114 2.25905 31.8847 2.25905 31.6783 2.34004L2.83134 13.7155C2.66798 13.78 2.52778 13.892 2.42898 14.0372C2.33018 14.1824 2.27734 14.3539 2.27734 14.5295V24.3795C2.27734 24.6116 2.36953 24.8342 2.53363 24.9983C2.69772 25.1624 2.92028 25.2545 3.15234 25.2545H6.80234V60.8475C6.80234 61.0796 6.89453 61.3022 7.05863 61.4663C7.22272 61.6304 7.44528 61.7225 7.67734 61.7225H56.3193C56.5514 61.7225 56.774 61.6304 56.9381 61.4663C57.1022 61.3022 57.1943 61.0796 57.1943 60.8475V25.254H60.8443C60.9593 25.2541 61.0731 25.2315 61.1793 25.1876C61.2855 25.1436 61.3819 25.0792 61.4632 24.9979C61.5445 24.9166 61.6089 24.8202 61.6529 24.714C61.6968 24.6078 61.7194 24.494 61.7193 24.379V14.529C61.7195 14.3537 61.6669 14.1823 61.5684 14.0372C61.4698 13.8921 61.3299 13.7801 61.1668 13.7155ZM48.7993 59.972H44.2373V49.4845C44.2373 49.2525 44.1452 49.0299 43.9811 48.8658C43.817 48.7017 43.5944 48.6095 43.3623 48.6095H38.5558V38.1215C38.5558 37.8895 38.4637 37.6669 38.2996 37.5028C38.1355 37.3387 37.9129 37.2465 37.6808 37.2465H26.3178C26.0858 37.2465 25.8632 37.3387 25.6991 37.5028C25.535 37.6669 25.4428 37.8895 25.4428 38.1215V48.6095H20.6363C20.4043 48.6095 20.1817 48.7017 20.0176 48.8658C19.8535 49.0299 19.7613 49.2525 19.7613 49.4845V59.972H15.1993V31.9005H48.7993V59.972ZM32.6893 38.9965V41.2965H31.3093V38.9965H32.6893ZM30.4343 43.0465H33.5643C33.7964 43.0465 34.019 42.9544 34.1831 42.7903C34.3472 42.6262 34.4393 42.4036 34.4393 42.1715V38.9965H36.8058V48.6095H27.1928V38.9965H29.5593V42.174C29.5591 42.2891 29.5816 42.403 29.6255 42.5093C29.6694 42.6157 29.7338 42.7123 29.8151 42.7937C29.8964 42.8751 29.9929 42.9397 30.0991 42.9838C30.2054 43.0279 30.3193 43.0505 30.4343 43.0505V43.0465ZM36.9903 50.357H38.3708V52.657H36.9903V50.357ZM27.0083 50.357V52.657H25.6278V50.357H27.0083ZM24.7528 54.407H27.8833C28.1154 54.407 28.338 54.3149 28.5021 54.1508C28.6662 53.9867 28.7583 53.7641 28.7583 53.532V50.355H31.1243V59.9675H21.5113V50.3595H23.8778V53.5365C23.8778 53.7686 23.97 53.9912 24.1341 54.1553C24.2982 54.3194 24.5208 54.4115 24.7528 54.4115V54.407ZM32.8743 50.357H35.2403V53.534C35.2403 53.7661 35.3325 53.9887 35.4966 54.1528C35.6607 54.3169 35.8833 54.409 36.1153 54.409H39.2458C39.4779 54.409 39.7005 54.3169 39.8646 54.1528C40.0287 53.9887 40.1208 53.7661 40.1208 53.534V50.357H42.4873V59.9695H32.8743V50.357ZM55.4453 59.9695H50.5493V31.0195C50.5494 30.9046 50.5268 30.7908 50.4829 30.6846C50.4389 30.5784 50.3745 30.4819 50.2932 30.4007C50.2119 30.3194 50.1155 30.255 50.0093 30.211C49.9031 30.1671 49.7893 30.1445 49.6743 30.1445H14.3223C14.0903 30.1445 13.8677 30.2367 13.7036 30.4008C13.5395 30.5649 13.4473 30.7875 13.4473 31.0195V59.9695H8.55334V25.254H55.4453V59.9695ZM59.9708 23.5015H4.02734V15.125L31.9993 4.09454L59.9708 15.125V23.5015Z" fill="#07D7AD"></path>
<path d="M27.5493 14.766C27.5493 15.6462 27.8103 16.5065 28.2993 17.2383C28.7883 17.9701 29.4833 18.5405 30.2964 18.8773C31.1095 19.2141 32.0043 19.3022 32.8675 19.1305C33.7307 18.9588 34.5236 18.535 35.146 17.9127C35.7683 17.2903 36.1921 16.4974 36.3638 15.6342C36.5355 14.771 36.4474 13.8762 36.1106 13.0631C35.7738 12.25 35.2034 11.555 34.4716 11.066C33.7398 10.577 32.8795 10.316 31.9993 10.316C30.8197 10.3179 29.6889 10.7873 28.8548 11.6215C28.0206 12.4556 27.5512 13.5864 27.5493 14.766ZM34.7033 14.766C34.7033 15.3001 34.545 15.8221 34.2483 16.2661C33.9516 16.7101 33.53 17.0562 33.0366 17.2605C32.5432 17.4649 32.0003 17.5183 31.4766 17.4142C30.9529 17.31 30.4718 17.0528 30.0942 16.6752C29.7166 16.2976 29.4594 15.8165 29.3552 15.2928C29.251 14.769 29.3045 14.2262 29.5089 13.7328C29.7132 13.2394 30.0593 12.8178 30.5033 12.5211C30.9473 12.2244 31.4693 12.066 32.0033 12.066C32.7183 12.0684 33.4033 12.3538 33.9085 12.8597C34.4137 13.3657 34.698 14.0511 34.6993 14.766H34.7033Z" fill="#07D7AD"></path>
</svg>